<mxfile host="app.diagrams.net" modified="2024-06-10T15:38:16.123Z" agent="Mozilla/5.0 (Macintosh; Intel Mac OS X 10_15_7) AppleWebKit/537.36 (KHTML, like Gecko) Chrome/125.0.0.0 Safari/537.36" etag="WVjkEs9w3yj8mQImTRD6" version="24.5.2" type="google">
  <diagram name="Page-1" id="IbCWckXTDmuyyfngfJbL">
    <mxGraphModel grid="1" page="1" gridSize="10" guides="1" tooltips="1" connect="1" arrows="1" fold="1" pageScale="1" pageWidth="827" pageHeight="1169" math="0" shadow="0">
      <root>
        <mxCell id="0" />
        <mxCell id="1" parent="0" />
        <mxCell id="-xw2xHwKISMoLS4NQuOI-1" value="" style="ellipse;shape=cloud;whiteSpace=wrap;html=1;strokeColor=none;fillColor=#A8DADC;fontColor=#1D3557;" vertex="1" parent="1">
          <mxGeometry x="160" y="490" width="940" height="540" as="geometry" />
        </mxCell>
        <mxCell id="-xw2xHwKISMoLS4NQuOI-2" value="" style="edgeStyle=orthogonalEdgeStyle;curved=0;rounded=1;sketch=0;orthogonalLoop=1;jettySize=auto;html=1;fontColor=#1D3557;strokeColor=#457B9D;fillColor=#A8DADC;" edge="1" parent="1" source="-xw2xHwKISMoLS4NQuOI-3" target="-xw2xHwKISMoLS4NQuOI-5">
          <mxGeometry relative="1" as="geometry" />
        </mxCell>
        <mxCell id="-xw2xHwKISMoLS4NQuOI-3" value="Turquoise &lt;br&gt;172.25.20.12 /28" style="verticalLabelPosition=bottom;aspect=fixed;html=1;verticalAlign=top;strokeColor=none;align=center;outlineConnect=0;shape=mxgraph.citrix.router;fillColor=#A8DADC;fontColor=#1D3557;" vertex="1" parent="1">
          <mxGeometry x="710" y="224.5" width="55" height="36.5" as="geometry" />
        </mxCell>
        <mxCell id="-xw2xHwKISMoLS4NQuOI-4" value="" style="edgeStyle=orthogonalEdgeStyle;rounded=0;orthogonalLoop=1;jettySize=auto;html=1;entryX=0.502;entryY=0.114;entryDx=0;entryDy=0;entryPerimeter=0;strokeColor=#457B9D;fontColor=#1D3557;labelBackgroundColor=#F1FAEE;" edge="1" parent="1" source="-xw2xHwKISMoLS4NQuOI-5" target="-xw2xHwKISMoLS4NQuOI-1">
          <mxGeometry relative="1" as="geometry" />
        </mxCell>
        <mxCell id="-xw2xHwKISMoLS4NQuOI-5" value="Ocre&lt;br&gt;172.25.20.14 /28" style="verticalLabelPosition=bottom;aspect=fixed;html=1;verticalAlign=top;strokeColor=none;align=center;outlineConnect=0;shape=mxgraph.citrix.router;fillColor=#A8DADC;fontColor=#1D3557;" vertex="1" parent="1">
          <mxGeometry x="710" y="379.75" width="55" height="36.5" as="geometry" />
        </mxCell>
        <mxCell id="-xw2xHwKISMoLS4NQuOI-6" value="Pourpre&lt;br&gt;172.25.20.3 /28" style="verticalLabelPosition=bottom;aspect=fixed;html=1;verticalAlign=top;strokeColor=none;align=center;outlineConnect=0;shape=mxgraph.citrix.switch;fillColor=#A8DADC;fontColor=#1D3557;" vertex="1" parent="1">
          <mxGeometry x="456" y="379.75" width="88.67" height="40" as="geometry" />
        </mxCell>
        <mxCell id="-xw2xHwKISMoLS4NQuOI-7" value="" style="endArrow=none;html=1;strokeColor=#457B9D;fontColor=#1D3557;labelBackgroundColor=#F1FAEE;" edge="1" parent="1" source="-xw2xHwKISMoLS4NQuOI-6" target="-xw2xHwKISMoLS4NQuOI-29">
          <mxGeometry width="50" height="50" relative="1" as="geometry">
            <mxPoint x="610" y="440" as="sourcePoint" />
            <mxPoint x="660" y="390" as="targetPoint" />
          </mxGeometry>
        </mxCell>
        <mxCell id="-xw2xHwKISMoLS4NQuOI-9" value="Neo &lt;br&gt;172.20.25.42 /29" style="verticalLabelPosition=bottom;aspect=fixed;html=1;verticalAlign=top;strokeColor=none;align=center;outlineConnect=0;shape=mxgraph.citrix.desktop;fillColor=#A8DADC;fontColor=#1D3557;" vertex="1" parent="1">
          <mxGeometry x="280" y="75" width="89" height="98" as="geometry" />
        </mxCell>
        <mxCell id="-xw2xHwKISMoLS4NQuOI-10" value="" style="endArrow=none;html=1;strokeColor=#457B9D;fontColor=#1D3557;labelBackgroundColor=#F1FAEE;" edge="1" parent="1" source="-xw2xHwKISMoLS4NQuOI-9">
          <mxGeometry width="50" height="50" relative="1" as="geometry">
            <mxPoint x="560" y="370" as="sourcePoint" />
            <mxPoint x="460" y="240" as="targetPoint" />
          </mxGeometry>
        </mxCell>
        <mxCell id="-xw2xHwKISMoLS4NQuOI-11" value="" style="endArrow=none;html=1;strokeColor=#457B9D;fontColor=#1D3557;labelBackgroundColor=#F1FAEE;" edge="1" parent="1" source="-xw2xHwKISMoLS4NQuOI-6" target="-xw2xHwKISMoLS4NQuOI-5">
          <mxGeometry width="50" height="50" relative="1" as="geometry">
            <mxPoint x="560" y="370" as="sourcePoint" />
            <mxPoint x="610" y="320" as="targetPoint" />
          </mxGeometry>
        </mxCell>
        <mxCell id="-xw2xHwKISMoLS4NQuOI-12" value="" style="endArrow=none;html=1;strokeColor=#457B9D;fontColor=#1D3557;labelBackgroundColor=#F1FAEE;" edge="1" parent="1" source="-xw2xHwKISMoLS4NQuOI-3" target="-xw2xHwKISMoLS4NQuOI-29">
          <mxGeometry width="50" height="50" relative="1" as="geometry">
            <mxPoint x="560" y="370" as="sourcePoint" />
            <mxPoint x="610" y="320" as="targetPoint" />
          </mxGeometry>
        </mxCell>
        <mxCell id="-xw2xHwKISMoLS4NQuOI-14" value="" style="endArrow=none;html=1;exitX=0.16;exitY=0.55;exitDx=0;exitDy=0;exitPerimeter=0;strokeColor=#457B9D;fontColor=#1D3557;labelBackgroundColor=#F1FAEE;" edge="1" parent="1" source="-xw2xHwKISMoLS4NQuOI-16" target="-xw2xHwKISMoLS4NQuOI-3">
          <mxGeometry width="50" height="50" relative="1" as="geometry">
            <mxPoint x="560" y="370" as="sourcePoint" />
            <mxPoint x="610" y="320" as="targetPoint" />
          </mxGeometry>
        </mxCell>
        <mxCell id="-xw2xHwKISMoLS4NQuOI-15" value="" style="endArrow=none;html=1;exitX=1.007;exitY=0.43;exitDx=0;exitDy=0;exitPerimeter=0;entryX=0.045;entryY=0.756;entryDx=0;entryDy=0;entryPerimeter=0;strokeColor=#457B9D;fontColor=#1D3557;labelBackgroundColor=#F1FAEE;" edge="1" parent="1" source="-xw2xHwKISMoLS4NQuOI-23" target="-xw2xHwKISMoLS4NQuOI-6">
          <mxGeometry width="50" height="50" relative="1" as="geometry">
            <mxPoint x="170" y="500" as="sourcePoint" />
            <mxPoint x="450" y="410" as="targetPoint" />
          </mxGeometry>
        </mxCell>
        <mxCell id="-xw2xHwKISMoLS4NQuOI-16" value="&lt;div&gt;Baie de brassage&lt;/div&gt;&lt;div&gt;ExtÃ©rieure&lt;br&gt;&lt;/div&gt;" style="ellipse;shape=cloud;whiteSpace=wrap;html=1;fillColor=#A8DADC;strokeColor=#457B9D;fontColor=#1D3557;" vertex="1" parent="1">
          <mxGeometry x="930" y="290.75" width="140" height="89.25" as="geometry" />
        </mxCell>
        <mxCell id="-xw2xHwKISMoLS4NQuOI-17" value="" style="endArrow=none;html=1;exitX=0.16;exitY=0.55;exitDx=0;exitDy=0;exitPerimeter=0;strokeColor=#457B9D;fontColor=#1D3557;labelBackgroundColor=#F1FAEE;" edge="1" parent="1" source="-xw2xHwKISMoLS4NQuOI-16" target="-xw2xHwKISMoLS4NQuOI-5">
          <mxGeometry width="50" height="50" relative="1" as="geometry">
            <mxPoint x="931.8154498740428" y="416.2538973635553" as="sourcePoint" />
            <mxPoint x="760" y="356.35415841584154" as="targetPoint" />
          </mxGeometry>
        </mxCell>
        <mxCell id="-xw2xHwKISMoLS4NQuOI-18" value="&lt;font color=&quot;rgba(0, 0, 0, 0)&quot;&gt;&lt;span style=&quot;background-color: rgb(27 , 30 , 31)&quot;&gt;Onix&amp;nbsp;&lt;/span&gt;&lt;span style=&quot;background-color: rgb(27 , 30 , 31)&quot;&gt;172.25.20.5 /28&lt;/span&gt;&lt;/font&gt;" style="aspect=fixed;html=1;points=[];align=center;image;fontSize=12;image=img/lib/mscae/VM_Linux.svg;fillColor=#A8DADC;strokeColor=#457B9D;fontColor=#1D3557;labelBackgroundColor=#F1FAEE;" vertex="1" parent="1">
          <mxGeometry x="440" y="830" width="50" height="46" as="geometry" />
        </mxCell>
        <mxCell id="-xw2xHwKISMoLS4NQuOI-19" value="&lt;font color=&quot;rgba(0, 0, 0, 0)&quot;&gt;&lt;span style=&quot;background-color: rgb(248 , 249 , 250)&quot;&gt;Tourmaline&amp;nbsp;&lt;/span&gt;&lt;span style=&quot;background-color: rgb(27 , 30 , 31)&quot;&gt;172.25.20.8 /28&lt;/span&gt;&lt;/font&gt;" style="aspect=fixed;html=1;points=[];align=center;image;fontSize=12;image=img/lib/mscae/VM_Linux.svg;fillColor=#A8DADC;strokeColor=#457B9D;fontColor=#1D3557;labelBackgroundColor=#F1FAEE;" vertex="1" parent="1">
          <mxGeometry x="299.5" y="830" width="50" height="46" as="geometry" />
        </mxCell>
        <mxCell id="-xw2xHwKISMoLS4NQuOI-20" value="&lt;span style=&quot;background-color: rgb(248 , 249 , 250)&quot;&gt;Jade 172.20.25.49 /28&lt;/span&gt;" style="aspect=fixed;html=1;points=[];align=center;image;fontSize=12;image=img/lib/mscae/VM_Linux.svg;fillColor=#A8DADC;strokeColor=#457B9D;fontColor=#1D3557;labelBackgroundColor=#F1FAEE;" vertex="1" parent="1">
          <mxGeometry x="479.99999999999994" y="550" width="50" height="46" as="geometry" />
        </mxCell>
        <mxCell id="-xw2xHwKISMoLS4NQuOI-21" value="&lt;span style=&quot;background-color: rgb(248 , 249 , 250)&quot;&gt;Rubis 172.25.20.4 /28&lt;br&gt;&lt;/span&gt;" style="aspect=fixed;html=1;points=[];align=center;image;fontSize=12;image=img/lib/mscae/VirtualMachineWindows.svg;fillColor=#A8DADC;strokeColor=#457B9D;fontColor=#1D3557;labelBackgroundColor=#F1FAEE;" vertex="1" parent="1">
          <mxGeometry x="270" y="650" width="50" height="46" as="geometry" />
        </mxCell>
        <mxCell id="-xw2xHwKISMoLS4NQuOI-22" value="&lt;font color=&quot;rgba(0, 0, 0, 0)&quot;&gt;&lt;span style=&quot;background-color: rgb(248 , 249 , 250)&quot;&gt;Saphir&amp;nbsp;&lt;/span&gt;&lt;span style=&quot;background-color: rgb(27 , 30 , 31)&quot;&gt;172.25.20.7 /28&lt;/span&gt;&lt;/font&gt;" style="aspect=fixed;html=1;points=[];align=center;image;fontSize=12;image=img/lib/mscae/VirtualMachineWindows.svg;fillColor=#A8DADC;strokeColor=#457B9D;fontColor=#1D3557;labelBackgroundColor=#F1FAEE;" vertex="1" parent="1">
          <mxGeometry x="330" y="720" width="50" height="46" as="geometry" />
        </mxCell>
        <mxCell id="-xw2xHwKISMoLS4NQuOI-23" value="Krosmoz&lt;br&gt;172.25.20.1 /28" style="shadow=0;dashed=0;html=1;labelPosition=center;verticalLabelPosition=bottom;verticalAlign=top;align=center;outlineConnect=0;shape=mxgraph.veeam.3d.esx_esxi;fillColor=#A8DADC;strokeColor=#457B9D;fontColor=#1D3557;" vertex="1" parent="1">
          <mxGeometry x="144" y="510.75" width="70" height="100" as="geometry" />
        </mxCell>
        <mxCell id="-xw2xHwKISMoLS4NQuOI-24" value="" style="endArrow=none;html=1;entryX=0.07;entryY=0.4;entryDx=0;entryDy=0;entryPerimeter=0;exitX=1.007;exitY=0.43;exitDx=0;exitDy=0;exitPerimeter=0;strokeColor=#457B9D;fontColor=#1D3557;labelBackgroundColor=#F1FAEE;" edge="1" parent="1" source="-xw2xHwKISMoLS4NQuOI-23" target="-xw2xHwKISMoLS4NQuOI-1">
          <mxGeometry width="50" height="50" relative="1" as="geometry">
            <mxPoint x="40" y="716.8" as="sourcePoint" />
            <mxPoint x="326" y="630.0047769688347" as="targetPoint" />
          </mxGeometry>
        </mxCell>
        <mxCell id="-xw2xHwKISMoLS4NQuOI-26" value="" style="shape=image;html=1;verticalAlign=top;verticalLabelPosition=bottom;imageAspect=0;aspect=fixed;image=https://cdn0.iconfinder.com/data/icons/global-top-brands/480/windows-10-128.png;fillColor=#A8DADC;strokeColor=#457B9D;fontColor=#1D3557;labelBackgroundColor=#F1FAEE;" vertex="1" parent="1">
          <mxGeometry x="320" y="120" width="39.5" height="39.5" as="geometry" />
        </mxCell>
        <mxCell id="-xw2xHwKISMoLS4NQuOI-27" value="" style="pointerEvents=1;shadow=0;dashed=0;html=1;strokeColor=none;fillColor=#A8DADC;labelPosition=center;verticalLabelPosition=bottom;verticalAlign=top;align=center;outlineConnect=0;shape=mxgraph.veeam2.esxi_host;fontColor=#1D3557;" vertex="1" parent="1">
          <mxGeometry x="138" y="450" width="82" height="79" as="geometry" />
        </mxCell>
        <mxCell id="-xw2xHwKISMoLS4NQuOI-28" value="" style="edgeStyle=orthogonalEdgeStyle;rounded=0;orthogonalLoop=1;jettySize=auto;html=1;strokeColor=#457B9D;fontColor=#1D3557;labelBackgroundColor=#F1FAEE;" edge="1" parent="1" source="-xw2xHwKISMoLS4NQuOI-29" target="-xw2xHwKISMoLS4NQuOI-6">
          <mxGeometry relative="1" as="geometry">
            <Array as="points">
              <mxPoint x="500" y="243" />
              <mxPoint x="500" y="243" />
            </Array>
          </mxGeometry>
        </mxCell>
        <mxCell id="-xw2xHwKISMoLS4NQuOI-29" value="Emeraude&lt;br&gt;172.25.20.2 /28&lt;br&gt;" style="verticalLabelPosition=bottom;aspect=fixed;html=1;verticalAlign=top;strokeColor=none;align=center;outlineConnect=0;shape=mxgraph.citrix.switch;fillColor=#A8DADC;fontColor=#1D3557;" vertex="1" parent="1">
          <mxGeometry x="456" y="222" width="92" height="41.5" as="geometry" />
        </mxCell>
        <mxCell id="-xw2xHwKISMoLS4NQuOI-30" value="&lt;span style=&quot;background-color: rgb(248 , 249 , 250)&quot;&gt;AmÃ©thyste 172.25.20.50 /28&lt;/span&gt;" style="aspect=fixed;html=1;points=[];align=center;image;fontSize=12;image=img/lib/mscae/VM_Linux.svg;fillColor=#A8DADC;strokeColor=#457B9D;fontColor=#1D3557;labelBackgroundColor=#F1FAEE;" vertex="1" parent="1">
          <mxGeometry x="620" y="560" width="50" height="46" as="geometry" />
        </mxCell>
        <mxCell id="-xw2xHwKISMoLS4NQuOI-31" value="&lt;span style=&quot;background-color: rgb(248 , 249 , 250)&quot;&gt;Test client&lt;/span&gt;" style="aspect=fixed;html=1;points=[];align=center;image;fontSize=12;image=img/lib/mscae/VirtualMachineWindows.svg;fillColor=#A8DADC;strokeColor=#457B9D;fontColor=#1D3557;labelBackgroundColor=#F1FAEE;" vertex="1" parent="1">
          <mxGeometry x="650" y="930" width="50" height="46" as="geometry" />
        </mxCell>
        <mxCell id="-xw2xHwKISMoLS4NQuOI-32" value="&lt;span style=&quot;background-color: rgb(248 , 249 , 250)&quot;&gt;Pen Testing&lt;/span&gt;" style="aspect=fixed;html=1;points=[];align=center;image;fontSize=12;image=img/lib/mscae/VM_Linux.svg;fillColor=#A8DADC;strokeColor=#457B9D;fontColor=#1D3557;labelBackgroundColor=#F1FAEE;" vertex="1" parent="1">
          <mxGeometry x="720" y="920" width="50" height="46" as="geometry" />
        </mxCell>
        <mxCell id="-xw2xHwKISMoLS4NQuOI-33" value="&lt;font style=&quot;font-size: 25px&quot; color=&quot;#ffffff&quot;&gt;&lt;b&gt;&lt;i&gt;DMZ&lt;/i&gt;&lt;/b&gt;&lt;/font&gt;" style="ellipse;shape=cloud;whiteSpace=wrap;html=1;strokeColor=none;fillColor=#B3B3B3;fontColor=#1D3557;sketch=1;" vertex="1" parent="1">
          <mxGeometry x="327" y="450" width="520" height="280" as="geometry" />
        </mxCell>
        <mxCell id="-xw2xHwKISMoLS4NQuOI-34" value="&lt;span style=&quot;background-color: rgb(248 , 249 , 250)&quot;&gt;Ivoire&amp;nbsp; 172.25.20.51 /28&lt;/span&gt;" style="aspect=fixed;html=1;points=[];align=center;image;fontSize=12;image=img/lib/mscae/VM_Linux.svg;fillColor=#A8DADC;strokeColor=#457B9D;fontColor=#1D3557;labelBackgroundColor=#F1FAEE;" vertex="1" parent="1">
          <mxGeometry x="480" y="620" width="50" height="46" as="geometry" />
        </mxCell>
        <mxCell id="-xw2xHwKISMoLS4NQuOI-35" value="&lt;span style=&quot;background-color: rgb(22 , 24 , 25)&quot;&gt;&lt;font color=&quot;rgba(0, 0, 0, 0)&quot;&gt;Diamant 172.25.20.52 /28&lt;/font&gt;&lt;/span&gt;" style="aspect=fixed;html=1;points=[];align=center;image;fontSize=12;image=img/lib/mscae/VM_Linux.svg;fillColor=#A8DADC;strokeColor=#457B9D;fontColor=#1D3557;labelBackgroundColor=#F1FAEE;" vertex="1" parent="1">
          <mxGeometry x="620" y="630" width="50" height="46" as="geometry" />
        </mxCell>
        <mxCell id="-xw2xHwKISMoLS4NQuOI-36" value="&lt;font color=&quot;#6666ff&quot; style=&quot;background-color: rgb(179, 179, 179);&quot;&gt;&lt;b style=&quot;&quot;&gt;Quartz 172.25.20.10&lt;/b&gt;&lt;/font&gt;" style="aspect=fixed;html=1;points=[];align=center;image;fontSize=12;image=img/lib/mscae/VM_Linux.svg;fillColor=#A8DADC;strokeColor=#457B9D;fontColor=#1D3557;labelBackgroundColor=#F1FAEE;" vertex="1" parent="1">
          <mxGeometry x="740" y="606" width="50" height="46" as="geometry" />
        </mxCell>
        <mxCell id="-xw2xHwKISMoLS4NQuOI-37" value="&lt;span style=&quot;background-color: rgb(22 , 24 , 25)&quot;&gt;&lt;font color=&quot;rgba(0, 0, 0, 0)&quot;&gt;Ford172.25.20.6 /28&lt;/font&gt;&lt;/span&gt;" style="aspect=fixed;html=1;points=[];align=center;image;fontSize=12;image=img/lib/mscae/VM_Linux.svg;fillColor=#A8DADC;strokeColor=#457B9D;fontColor=#1D3557;labelBackgroundColor=#F1FAEE;" vertex="1" parent="1">
          <mxGeometry x="880" y="596" width="50" height="46" as="geometry" />
        </mxCell>
      </root>
    </mxGraphModel>
  </diagram>
</mxfile>
